<?xml version="1.0" encoding="UTF-8"?>
<svg id="Layer_2" data-name="Layer 2" xmlns="http://www.w3.org/2000/svg" xmlns:xlink="http://www.w3.org/1999/xlink" viewBox="0 0 263.71 202.35">
  <defs>
    <style>
      .cls-1 {
        fill: url(#Degradado_sin_nombre_25-2);
      }

      .cls-1, .cls-2, .cls-3 {
        stroke-width: 0px;
      }

      .cls-2 {
        fill: url(#Degradado_sin_nombre_25-3);
      }

      .cls-4 {
        fill: #0dde9c;
        font-family: Moon-Bold, Moon;
        font-size: 78.31px;
        font-weight: 700;
      }

      .cls-3 {
        fill: url(#Degradado_sin_nombre_25);
      }
    </style>
    <linearGradient id="Degradado_sin_nombre_25" data-name="Degradado sin nombre 25" x1="88.68" y1="49.15" x2="187.02" y2="49.15" gradientUnits="userSpaceOnUse">
      <stop offset="0" stop-color="#00d3c5"/>
      <stop offset=".11" stop-color="#05d4c2"/>
      <stop offset=".26" stop-color="#16d7bb"/>
      <stop offset=".44" stop-color="#32ddb0"/>
      <stop offset=".62" stop-color="#59e5a0"/>
      <stop offset=".82" stop-color="#8aef8d"/>
      <stop offset="1" stop-color="#bdfa79"/>
    </linearGradient>
    <linearGradient id="Degradado_sin_nombre_25-2" data-name="Degradado sin nombre 25" x1="130.83" y1="36.71" x2="158.22" y2="36.71" xlink:href="#Degradado_sin_nombre_25"/>
    <linearGradient id="Degradado_sin_nombre_25-3" data-name="Degradado sin nombre 25" x1="0" y1="73.79" x2="263.71" y2="73.79" xlink:href="#Degradado_sin_nombre_25"/>
  </defs>
  <g id="Capa_1" data-name="Capa 1">
    <text class="cls-4" transform="translate(14.14 186.37)"><tspan x="0" y="0">QPLEX</tspan></text>
    <g>
      <path class="cls-3" d="M137.91,0c-27.05-.1-49.17,21.96-49.22,49.08.02,27,21.55,48.98,48.62,49.22,27.52.24,49.67-21.73,49.72-49C187.07,22.1,165.15.1,137.91,0ZM139.64,91.26c-19.38.83-35.16-11.47-40.88-26.64,26.06,12.2,52.09,12.21,78.1.04-4.3,12.19-17.64,25.76-37.23,26.6ZM178.8,55.59c-9.93,5.83-20.62,9.43-32.06,10.64-17.77,1.88-34.42-1.71-49.88-10.71-.48-.28-.73-.59-.81-1.16-.47-3.46-.48-6.92,0-10.38.07-.51.24-.84.71-1.11,8.99-5.32,18.63-8.81,28.96-10.4,2.6-.4,5.22-.66,7.85-.81.61-.03.79-.19.78-.81-.04-1.72-.07-3.44,0-5.16.04-.92-.2-1.14-1.12-1.09-9.33.56-18.36,2.44-27.08,5.8-2.51.97-4.97,2.07-7.61,3.34,7.05-18.52,26.48-28.69,44.26-26.44,19.19,2.43,30.53,16.17,34.1,26.49-3.75-1.84-7.55-3.37-11.42-4.76-1.07-.38-1.6-.25-2.09.81-.68,1.45-1.52,2.83-2.35,4.2-.36.59-.38.85.38,1.07,6.11,1.81,11.89,4.4,17.38,7.63.62.36.87.78.95,1.45.38,3.32.38,6.64,0,9.96-.08.67-.35,1.08-.96,1.44Z"/>
      <path class="cls-1" d="M157.47,19.91c-1.43-.73-2.82-1.54-4.17-2.4-.7-.44-1.02-.41-1.47.37-4.47,7.82-8.99,15.62-13.48,23.43-.32.55-.65.81-1.32.89-3.79.47-6.44,3.72-6.18,7.49.25,3.62,3.36,6.49,7.03,6.49,5,0,8.39-5.11,6.42-9.72-.28-.67-.21-1.11.13-1.69,4.51-7.76,8.97-15.54,13.51-23.29.51-.87.33-1.16-.47-1.57Z"/>
    </g>
    <path class="cls-2" d="M257.62,29.25c-2.97-.48-6.06-.5-9.2-.04-6.54.95-13.34,3.93-20.8,9.11-6.75,4.68-13.3,10.17-21.23,17.79-3.59,3.44-7.11,6.99-10.52,10.42-2.74,2.75-5.57,5.6-8.38,8.34-4.18,4.07-8.46,8.05-12.96,11.77-10.95,9.03-24.48,15.95-39.05,15.3-4.8-.22-9.54-1.28-14.06-2.91-6.8-2.44-12.93-5.95-18.58-10.4-3.73-2.94-7.1-6.25-10.53-9.52-11.43-10.88-22.86-21.75-34.29-32.63-.41-8.97-8.13-16.69-18.4-17.84-5.82-.65-11.31.95-15.41,4.03-6.24,1.47-10.95,5.06-12.23,9.76l-3.09-.34-7.73-4.61,3.11,5.59-4.26,4.77,8.55-2.8,3.09.34c.21,4.87,4.02,9.41,9.78,12.21,3.32,3.9,8.33,6.67,14.15,7.31,5.32.59,10.35-.7,14.31-3.28,2.3,1.97,4.57,3.98,6.79,6.04,10.57,9.85,20.1,20.79,31.02,30.25,10.92,9.46,23.57,17.52,37.77,20.19,1.02.19,2.05.36,3.08.49,3.32.44,6.66.57,9.98.44,10.49-.42,20.85-3.51,30.22-8.22,13.13-6.61,23.58-16.94,33.73-27.38,1.44-1.48,2.87-2.97,4.3-4.45,3.67-3.81,7.46-7.76,11.3-11.46,14.08-13.56,26.76-21.19,39.91-24.02,3.41-.73,5.82-3.79,5.73-7.28s-2.64-6.42-6.08-6.98ZM31.5,54.34c-.18,1.64-1.65,2.81-3.29,2.63-1.64-.18-2.81-1.65-2.63-3.29.18-1.64,1.65-2.81,3.29-2.63,1.64.18,2.81,1.65,2.63,3.29ZM33.39,37.31c-.18,1.64-1.65,2.81-3.29,2.63-1.64-.18-2.81-1.65-2.63-3.29.18-1.64,1.65-2.81,3.29-2.63s2.81,1.65,2.63,3.29Z"/>
  </g>
</svg>